<svg width="65" height="66" viewBox="0 0 65 66" fill="none" xmlns="http://www.w3.org/2000/svg">
<path d="M32.5003 0C14.5532 0 0 15.0817 0 33.6868C0 48.5705 9.31231 61.1978 22.2257 65.6521C23.8499 65.9639 24.4462 64.9213 24.4462 64.0316C24.4462 63.2283 24.4161 60.5746 24.4021 57.7598C15.3605 59.7976 13.4526 53.7852 13.4526 53.7852C11.9742 49.8915 9.84405 48.8561 9.84405 48.8561C6.8953 46.7653 10.0663 46.8083 10.0663 46.8083C13.3299 47.0459 15.0484 50.2797 15.0484 50.2797C17.947 55.4297 22.6514 53.9408 24.506 53.0801C24.7977 50.9028 25.64 49.4168 26.5694 48.5755C19.3507 47.7237 11.7622 44.8352 11.7622 31.9274C11.7622 28.2495 13.0318 25.2445 15.1108 22.8854C14.7733 22.0369 13.6609 18.6106 15.4256 13.9705C15.4256 13.9705 18.1548 13.0652 24.3655 17.4236C26.958 16.6772 29.7383 16.3029 32.5003 16.29C35.2623 16.3029 38.0447 16.6772 40.642 17.4236C46.8452 13.0652 49.5706 13.9705 49.5706 13.9705C51.3396 18.6106 50.2267 22.0369 49.8892 22.8854C51.9731 25.2445 53.2341 28.2495 53.2341 31.9274C53.2341 44.8659 45.631 47.7148 38.394 48.5488C39.5597 49.5941 40.5984 51.6442 40.5984 54.7871C40.5984 59.2944 40.5608 62.922 40.5608 64.0316C40.5608 64.928 41.1458 65.9784 42.7932 65.6476C55.6995 61.1883 65 48.5655 65 33.6868C65 15.0817 50.4489 0 32.5003 0" fill="#161514"/>
</svg>
