<svg width="65" height="66" viewBox="0 0 65 66" fill="none" xmlns="http://www.w3.org/2000/svg">
<path d="M32.5 65.71C50.4493 65.71 65 51.0003 65 32.855C65 14.7097 50.4493 0 32.5 0C14.5507 0 0 14.7097 0 32.855C0 51.0003 14.5507 65.71 32.5 65.71Z" fill="url(#paint0_linear_150_13)"/>
<path d="M12.1039 34.4621C15.9031 32.3466 20.1441 30.5809 24.1067 28.8061C30.9238 25.8993 37.768 23.0428 44.6813 20.3835C46.0264 19.9304 48.4432 19.4873 48.6802 21.5024C48.5504 24.3547 48.0166 27.1904 47.6504 30.026C46.7211 36.2619 45.647 42.4764 44.5995 48.6918C44.2386 50.7621 41.6732 51.8338 40.0316 50.5089C36.0867 47.8152 32.1114 45.1475 28.2168 42.3913C26.941 41.0808 28.1241 39.1989 29.2634 38.263C32.5126 35.026 35.9584 32.2758 39.0378 28.8714C39.8685 26.8437 37.4141 28.5526 36.6046 29.0763C32.1564 32.175 27.8171 35.463 23.1274 38.1864C20.7319 39.5195 17.9398 38.3803 15.5454 37.6364C13.3985 36.7378 10.2525 35.8325 12.1037 34.4624L12.1039 34.4621Z" fill="white"/>
<defs>
<linearGradient id="paint0_linear_150_13" x1="43.336" y1="10.9539" x2="26.7855" y2="49.1523" gradientUnits="userSpaceOnUse">
<stop stop-color="#37AEE2"/>
<stop offset="1" stop-color="#1E96C8"/>
</linearGradient>
</defs>
</svg>
