<svg width="35" height="21" viewBox="0 0 35 21" fill="none" xmlns="http://www.w3.org/2000/svg">
<path d="M34.435 18.2557C34.435 18.1193 34.3 18.1193 34.3 17.9829C33.7604 16.8919 32.5462 15.5281 30.9272 14.028C30.1178 13.3461 29.713 12.8006 29.4432 12.5278C29.0385 11.9823 29.0385 11.5732 29.1734 11.0277C29.3083 10.6186 29.8479 9.93666 30.7923 8.70927C31.332 8.02738 31.6018 7.61826 32.0065 7.20913C34.0302 4.48158 34.9746 2.70866 34.7048 1.8904L34.5699 1.75403C34.435 1.61766 34.3 1.48128 34.0302 1.48128C33.7604 1.3449 33.3557 1.3449 32.9509 1.48128H27.8243C27.6894 1.48128 27.6893 1.48128 27.4195 1.48128C27.2846 1.48128 27.1497 1.48128 27.1497 1.48128H27.0148H26.8799L26.7449 1.61765C26.61 1.75402 26.61 1.75402 26.61 1.8904C26.0704 3.39055 25.3958 4.61794 24.7213 5.98172C24.3165 6.66361 23.9118 7.3455 23.5071 7.89101C23.1023 8.43652 22.8325 8.84565 22.5627 9.1184C22.2928 9.39116 22.023 9.52753 21.8881 9.80029C21.7532 9.93667 21.4834 10.0731 21.4834 9.93668C21.3485 9.93668 21.2135 9.93667 21.2135 9.80029C21.0786 9.66391 20.9437 9.52753 20.8088 9.39115C20.6739 9.25478 20.6739 8.98202 20.539 8.70927C20.539 8.43651 20.539 8.16376 20.539 8.02738C20.539 7.891 20.539 7.48188 20.539 7.20913C20.539 6.79999 20.539 6.52723 20.539 6.39085C20.539 5.98172 20.539 5.43623 20.539 4.89072C20.539 4.34521 20.539 3.93606 20.539 3.66331C20.539 3.39055 20.539 2.98142 20.539 2.70867C20.539 2.29954 20.539 2.02677 20.539 1.8904C20.539 1.75402 20.4041 1.48127 20.4041 1.3449C20.2692 1.20852 20.1342 1.07214 19.9993 0.93576C19.8644 0.799383 19.5946 0.799387 19.4597 0.663009C18.7851 0.526632 17.9757 0.390259 17.0313 0.390259C14.8727 0.390259 13.3886 0.52664 12.849 0.799395C12.5792 0.935772 12.3094 1.07214 12.1744 1.3449C11.9046 1.61765 11.9046 1.75403 12.0395 1.75403C12.7141 1.89041 13.2537 2.16315 13.5236 2.57228L13.6585 2.84506C13.7934 2.98143 13.7934 3.25418 13.9283 3.66331C14.0632 4.07244 14.0632 4.48157 14.0632 5.02708C14.0632 5.84535 14.0632 6.66362 14.0632 7.20913C14.0632 7.89101 13.9283 8.30013 13.9283 8.70927C13.9283 9.1184 13.7934 9.39116 13.6585 9.52754C13.5236 9.80029 13.5236 9.93668 13.3886 9.93668C13.3886 9.93668 13.3886 10.073 13.2537 10.073C13.1188 10.073 12.9839 10.2094 12.7141 10.2094C12.5792 10.2094 12.3094 10.0731 12.1744 9.93668C11.9046 9.8003 11.6348 9.52754 11.4999 9.25479C11.2301 8.98203 10.9602 8.57289 10.6904 8.02738C10.4206 7.48187 10.0158 6.93637 9.74599 6.1181L9.47619 5.5726C9.34128 5.29985 9.07146 4.75433 8.80163 4.07244C8.53181 3.39056 8.26198 2.84506 7.99215 2.16317C7.85724 1.89041 7.72234 1.75402 7.58743 1.61765H7.45251C7.45251 1.61765 7.31758 1.48128 7.18267 1.48128C7.04776 1.48128 6.91286 1.3449 6.77795 1.3449H1.9211C1.38145 1.3449 1.11163 1.48127 0.976717 1.61765L0.841797 1.75403C0.841797 1.75403 0.841797 1.89041 0.841797 2.02678C0.841797 2.16316 0.841805 2.29953 0.976717 2.57228C1.65128 4.20881 2.46075 5.84535 3.27022 7.48188C4.0797 8.98203 4.88918 10.3458 5.42883 11.3004C6.10339 12.2551 6.64303 13.2097 7.31759 14.028C7.99215 14.8463 8.39688 15.3918 8.53179 15.6645C8.80162 15.9373 8.93652 16.0736 9.07143 16.21L9.47619 16.6192C9.74602 16.8919 10.1507 17.301 10.6904 17.7102C11.23 18.1193 11.9046 18.5284 12.5792 18.9376C13.2537 19.3467 14.0632 19.6195 14.8727 19.8922C15.8171 20.165 16.6265 20.3014 17.436 20.165H19.4597C19.8644 20.165 20.1343 20.0286 20.4041 19.7558L20.539 19.6195C20.539 19.4831 20.6739 19.4831 20.6739 19.3467C20.6739 19.2103 20.6739 19.074 20.6739 18.8012C20.6739 18.2557 20.6739 17.8466 20.8088 17.4374C20.9437 17.0283 20.9437 16.7555 21.0787 16.4828C21.2136 16.21 21.3485 16.0736 21.4834 15.9373C21.6183 15.8009 21.7532 15.6645 21.7532 15.6645H21.8881C22.1579 15.5281 22.5627 15.6645 22.8325 15.9373C23.2372 16.21 23.642 16.6192 23.9118 17.0283C24.1816 17.4374 24.5864 17.8466 25.126 18.3921C25.6657 18.9376 26.0704 19.3467 26.3402 19.4831L26.7449 19.7558C27.0148 19.8922 27.2846 20.0286 27.6894 20.165C28.0941 20.3014 28.3639 20.3013 28.6337 20.3013L33.2208 20.165C33.6255 20.165 34.0302 20.0286 34.3 19.8922C34.5699 19.7558 34.7048 19.6195 34.7048 19.3467C34.7048 19.2103 34.7048 18.9376 34.7048 18.8012C34.4349 18.5284 34.435 18.3921 34.435 18.2557Z" fill="white"/>
</svg>
