<svg width="65" height="66" viewBox="0 0 65 66" fill="none" xmlns="http://www.w3.org/2000/svg">
<ellipse cx="32.5" cy="32.8529" rx="32.5" ry="32.8529" fill="#7294C7"/>
<path d="M48.435 41.2557C48.435 41.1193 48.3 41.1193 48.3 40.9829C47.7604 39.8919 46.5462 38.5281 44.9272 37.028C44.1178 36.3461 43.713 35.8006 43.4432 35.5278C43.0385 34.9823 43.0385 34.5732 43.1734 34.0277C43.3083 33.6186 43.8479 32.9367 44.7923 31.7093C45.332 31.0274 45.6018 30.6183 46.0065 30.2091C48.0302 27.4816 48.9746 25.7087 48.7048 24.8904L48.5699 24.754C48.435 24.6177 48.3 24.4813 48.0302 24.4813C47.7604 24.3449 47.3557 24.3449 46.9509 24.4813H41.8243C41.6894 24.4813 41.6893 24.4813 41.4195 24.4813C41.2846 24.4813 41.1497 24.4813 41.1497 24.4813H41.0148H40.8799L40.7449 24.6176C40.61 24.754 40.61 24.754 40.61 24.8904C40.0704 26.3905 39.3958 27.6179 38.7213 28.9817C38.3165 29.6636 37.9118 30.3455 37.5071 30.891C37.1023 31.4365 36.8325 31.8456 36.5627 32.1184C36.2928 32.3912 36.023 32.5275 35.8881 32.8003C35.7532 32.9367 35.4834 33.0731 35.4834 32.9367C35.3485 32.9367 35.2135 32.9367 35.2135 32.8003C35.0786 32.6639 34.9437 32.5275 34.8088 32.3912C34.6739 32.2548 34.6739 31.982 34.539 31.7093C34.539 31.4365 34.539 31.1638 34.539 31.0274C34.539 30.891 34.539 30.4819 34.539 30.2091C34.539 29.8 34.539 29.5272 34.539 29.3909C34.539 28.9817 34.539 28.4362 34.539 27.8907C34.539 27.3452 34.539 26.9361 34.539 26.6633C34.539 26.3906 34.539 25.9814 34.539 25.7087C34.539 25.2995 34.539 25.0268 34.539 24.8904C34.539 24.754 34.4041 24.4813 34.4041 24.3449C34.2692 24.2085 34.1342 24.0721 33.9993 23.9358C33.8644 23.7994 33.5946 23.7994 33.4597 23.663C32.7851 23.5266 31.9757 23.3903 31.0313 23.3903C28.8727 23.3903 27.3886 23.5266 26.849 23.7994C26.5792 23.9358 26.3094 24.0721 26.1744 24.3449C25.9046 24.6177 25.9046 24.754 26.0395 24.754C26.7141 24.8904 27.2537 25.1632 27.5236 25.5723L27.6585 25.8451C27.7934 25.9814 27.7934 26.2542 27.9283 26.6633C28.0632 27.0724 28.0632 27.4816 28.0632 28.0271C28.0632 28.8453 28.0632 29.6636 28.0632 30.2091C28.0632 30.891 27.9283 31.3001 27.9283 31.7093C27.9283 32.1184 27.7934 32.3912 27.6585 32.5275C27.5236 32.8003 27.5236 32.9367 27.3886 32.9367C27.3886 32.9367 27.3886 33.073 27.2537 33.073C27.1188 33.073 26.9839 33.2094 26.7141 33.2094C26.5792 33.2094 26.3094 33.0731 26.1744 32.9367C25.9046 32.8003 25.6348 32.5275 25.4999 32.2548C25.2301 31.982 24.9602 31.5729 24.6904 31.0274C24.4206 30.4819 24.0158 29.9364 23.746 29.1181L23.4762 28.5726C23.3413 28.2998 23.0715 27.7543 22.8016 27.0724C22.5318 26.3906 22.262 25.8451 21.9922 25.1632C21.8572 24.8904 21.7223 24.754 21.5874 24.6176H21.4525C21.4525 24.6176 21.3176 24.4813 21.1827 24.4813C21.0478 24.4813 20.9129 24.3449 20.7779 24.3449H15.9211C15.3815 24.3449 15.1116 24.4813 14.9767 24.6176L14.8418 24.754C14.8418 24.754 14.8418 24.8904 14.8418 25.0268C14.8418 25.1632 14.8418 25.2995 14.9767 25.5723C15.6513 27.2088 16.4607 28.8453 17.2702 30.4819C18.0797 31.982 18.8892 33.3458 19.4288 34.3004C20.1034 35.2551 20.643 36.2097 21.3176 37.028C21.9922 37.8463 22.3969 38.3918 22.5318 38.6645C22.8016 38.9373 22.9365 39.0736 23.0714 39.21L23.4762 39.6192C23.746 39.8919 24.1507 40.301 24.6904 40.7102C25.23 41.1193 25.9046 41.5284 26.5792 41.9376C27.2537 42.3467 28.0632 42.6195 28.8727 42.8922C29.8171 43.165 30.6265 43.3014 31.436 43.165H33.4597C33.8644 43.165 34.1343 43.0286 34.4041 42.7558L34.539 42.6195C34.539 42.4831 34.6739 42.4831 34.6739 42.3467C34.6739 42.2103 34.6739 42.074 34.6739 41.8012C34.6739 41.2557 34.6739 40.8466 34.8088 40.4374C34.9437 40.0283 34.9437 39.7555 35.0787 39.4828C35.2136 39.21 35.3485 39.0736 35.4834 38.9373C35.6183 38.8009 35.7532 38.6645 35.7532 38.6645H35.8881C36.1579 38.5281 36.5627 38.6645 36.8325 38.9373C37.2372 39.21 37.642 39.6192 37.9118 40.0283C38.1816 40.4374 38.5864 40.8466 39.126 41.3921C39.6657 41.9376 40.0704 42.3467 40.3402 42.4831L40.7449 42.7558C41.0148 42.8922 41.2846 43.0286 41.6893 43.165C42.0941 43.3014 42.3639 43.3013 42.6337 43.3013L47.2208 43.165C47.6255 43.165 48.0302 43.0286 48.3 42.8922C48.5699 42.7558 48.7048 42.6195 48.7048 42.3467C48.7048 42.2103 48.7048 41.9376 48.7048 41.8012C48.4349 41.5284 48.435 41.3921 48.435 41.2557Z" fill="white"/>
</svg>
