<svg id="visual" viewBox="0 0 900 600" width="900" height="600" xmlns="http://www.w3.org/2000/svg" xmlns:xlink="http://www.w3.org/1999/xlink" version="1.1"><rect x="0" y="0" width="900" height="600" fill="#ffffff"></rect><path d="M0 435L21.5 436.3C43 437.7 86 440.3 128.8 429.7C171.7 419 214.3 395 257.2 381.3C300 367.7 343 364.3 385.8 376.7C428.7 389 471.3 417 514.2 415.2C557 413.3 600 381.7 642.8 372.5C685.7 363.3 728.3 376.7 771.2 388.2C814 399.7 857 409.3 878.5 414.2L900 419L900 601L878.5 601C857 601 814 601 771.2 601C728.3 601 685.7 601 642.8 601C600 601 557 601 514.2 601C471.3 601 428.7 601 385.8 601C343 601 300 601 257.2 601C214.3 601 171.7 601 128.8 601C86 601 43 601 21.5 601L0 601Z" fill="#fa7268"></path><path d="M0 472L21.5 463.2C43 454.3 86 436.7 128.8 432.3C171.7 428 214.3 437 257.2 436.7C300 436.3 343 426.7 385.8 428.7C428.7 430.7 471.3 444.3 514.2 447.8C557 451.3 600 444.7 642.8 442.2C685.7 439.7 728.3 441.3 771.2 445.2C814 449 857 455 878.5 458L900 461L900 601L878.5 601C857 601 814 601 771.2 601C728.3 601 685.7 601 642.8 601C600 601 557 601 514.2 601C471.3 601 428.7 601 385.8 601C343 601 300 601 257.2 601C214.3 601 171.7 601 128.8 601C86 601 43 601 21.5 601L0 601Z" fill="#ef5f67"></path><path d="M0 492L21.5 488.3C43 484.7 86 477.3 128.8 475.7C171.7 474 214.3 478 257.2 484.2C300 490.3 343 498.7 385.8 502.5C428.7 506.3 471.3 505.7 514.2 501.5C557 497.3 600 489.7 642.8 487.5C685.7 485.3 728.3 488.7 771.2 490.3C814 492 857 492 878.5 492L900 492L900 601L878.5 601C857 601 814 601 771.2 601C728.3 601 685.7 601 642.8 601C600 601 557 601 514.2 601C471.3 601 428.7 601 385.8 601C343 601 300 601 257.2 601C214.3 601 171.7 601 128.8 601C86 601 43 601 21.5 601L0 601Z" fill="#e34c67"></path><path d="M0 492L21.5 493.2C43 494.3 86 496.7 128.8 498.8C171.7 501 214.3 503 257.2 505.5C300 508 343 511 385.8 511.7C428.7 512.3 471.3 510.7 514.2 507.3C557 504 600 499 642.8 496.7C685.7 494.3 728.3 494.7 771.2 497.7C814 500.7 857 506.3 878.5 509.2L900 512L900 601L878.5 601C857 601 814 601 771.2 601C728.3 601 685.7 601 642.8 601C600 601 557 601 514.2 601C471.3 601 428.7 601 385.8 601C343 601 300 601 257.2 601C214.3 601 171.7 601 128.8 601C86 601 43 601 21.5 601L0 601Z" fill="#d53867"></path><path d="M0 533L21.5 532.2C43 531.3 86 529.7 128.8 536.5C171.7 543.3 214.3 558.7 257.2 564C300 569.3 343 564.7 385.8 560.7C428.7 556.7 471.3 553.3 514.2 555.2C557 557 600 564 642.8 567.3C685.7 570.7 728.3 570.3 771.2 570.7C814 571 857 572 878.5 572.5L900 573L900 601L878.5 601C857 601 814 601 771.2 601C728.3 601 685.7 601 642.8 601C600 601 557 601 514.2 601C471.3 601 428.7 601 385.8 601C343 601 300 601 257.2 601C214.3 601 171.7 601 128.8 601C86 601 43 601 21.5 601L0 601Z" fill="#c62368"></path></svg>