<?xml version="1.0" standalone="no"?>
<!DOCTYPE svg PUBLIC "-//W3C//DTD SVG 20010904//EN"
 "http://www.w3.org/TR/2001/REC-SVG-20010904/DTD/svg10.dtd">
<svg version="1.0" xmlns="http://www.w3.org/2000/svg"
 width="250.000000pt" height="250.000000pt" viewBox="0 0 250.000000 250.000000"
 preserveAspectRatio="xMidYMid meet">
<metadata>
Created by potrace 1.14, written by Peter Selinger 2001-2017
</metadata>
<g transform="translate(0.000000,250.000000) scale(0.100000,-0.100000)"
fill="#000000" stroke="none">
<path d="M702 2360 c-191 -26 -298 -94 -359 -227 -50 -108 -52 -153 -53 -919
0 -685 1 -714 20 -777 22 -72 87 -167 141 -208 52 -39 128 -75 187 -88 73 -15
1151 -15 1224 0 59 13 135 49 187 88 54 41 119 136 141 208 19 63 20 92 20
777 -1 772 -3 808 -55 925 -29 63 -95 135 -154 165 -18 10 -67 27 -109 38 -74
21 -100 22 -602 24 -289 1 -553 -2 -588 -6z m1119 -160 c119 -23 185 -79 215
-185 15 -52 18 -124 22 -527 l4 -468 -689 0 c-378 -1 -718 -4 -754 -9 -55 -7
-97 -22 -172 -59 -5 -2 -7 222 -5 499 4 440 7 512 22 564 29 103 89 159 196
181 71 16 1082 19 1161 4z m237 -1517 c-3 -172 -4 -180 -31 -235 -17 -34 -46
-72 -71 -93 -81 -66 -67 -65 -705 -65 -641 0 -631 -1 -709 66 -119 102 -137
336 -34 437 70 68 40 66 835 67 l719 0 -4 -177z"/>
<path d="M786 1829 c-32 -25 -35 -75 -7 -110 l19 -24 450 0 c428 0 451 1 471
19 32 29 29 88 -5 115 -26 21 -37 21 -464 21 -427 0 -438 0 -464 -21z"/>
<path d="M780 1460 c-28 -28 -26 -81 3 -108 23 -22 29 -22 309 -22 273 0 286
1 312 21 34 27 36 77 3 107 -23 22 -29 22 -315 22 -279 0 -293 -1 -312 -20z"/>
</g>
</svg>
